<svg xmlns="http://www.w3.org/2000/svg" version="1.1" xmlns:xlink="http://www.w3.org/1999/xlink" width="40" height="60" x="0" y="0" viewBox="0 0 70 70" style="enable-background:new 0 0 512 512" xml:space="preserve" class=""><g><path d="M66.96 34.94h-2.27a3.16 3.16 0 0 0-2.94-4.32H42.2a3.06 3.06 0 0 0-2.95-2.26h-6.04V3c0-.55-.45-1-1-1-.56 0-1 .45-1 1v2.06H13.42c-.55 0-1 .45-1 1s.45 1 1 1h5.02v2.12H16.2c-.55 0-1 .45-1 1v7.55c0 .32.16.63.42.81l2.7 1.9c-.15 1.42.34 4.41 5.61 7.92H22a4.296 4.296 0 0 0-3.63 6.58h-3.94c.71-.88 1.13-2.01 1.13-3.23 0-2.89-2.35-5.24-5.24-5.24s-5.24 2.35-5.24 5.24c0 1.22.42 2.35 1.13 3.23H3.04c-.55 0-1 .45-1 1v4.13c0 .55.45 1 1 1h4.95v19.22a3.927 3.927 0 0 0-2.93 3.79c0 2.16 1.77 3.92 3.93 3.92 2.17 0 3.93-1.76 3.93-3.92 0-1.82-1.24-3.36-2.93-3.79V41.07h21.23V67c0 .56.44 1 1 1 .55 0 1-.44 1-1V41.07h26.81v19.22a3.907 3.907 0 0 0-2.93 3.79c0 2.16 1.76 3.92 3.93 3.92 2.16 0 3.92-1.76 3.92-3.92 0-1.82-1.24-3.35-2.92-3.79V41.07h4.94c.56 0 1-.45 1-1v-4.13c-.01-.55-.45-1-1.01-1zm-24.65-2.32h19.44a1.16 1.16 0 0 1 0 2.32H42.31zM20.32 20.6l2.92-2.06c.27-.18.43-.49.43-.81v-7.55c0-.55-.45-1-1-1h-2.24V7.06h10.78v21.3h-3.34c-7.3-3.83-7.62-6.89-7.55-7.76zm45.64 18.47H4.04v-2.13H65.96z" fill="#556ee6" opacity="1" data-original="#000000" class=""></path></g></svg>