<svg xmlns="http://www.w3.org/2000/svg" version="1.1" xmlns:xlink="http://www.w3.org/1999/xlink" width="40" height="60" x="0" y="0" viewBox="0 0 512 512" style="enable-background:new 0 0 512 512" xml:space="preserve" class=""><g><path fill-rule="evenodd" d="M23 36.59v163.54h117.57c45.08 0 81.76-36.69 81.76-81.77 0-45.09-36.68-81.77-81.76-81.77zm130.04 137.05H56.48c-3.86 0-7-3.13-7-7V70.07c0-3.87 3.14-7 7-7h96.56c3.87 0 7 3.13 7 7v96.56c0 3.88-3.13 7.01-7 7.01zm21.72-11.98v-18.83c0-3.87 3.13-7 7-7 3.86 0 7 3.13 7 7v18.83c0 3.86-3.14 7-7 7-3.87.01-7-3.14-7-7zm7-60.78c-3.87 0-7-3.13-7-7V75.05c0-3.87 3.13-7 7-7 3.86 0 7 3.13 7 7v18.83c0 3.87-3.14 7-7 7zm-35.72-23.8v82.56H63.48V77.08zm89.56 29.46h52.22c6.51 0 11.82 5.3 11.82 11.82s-5.31 11.82-11.82 11.82H235.6a96.183 96.183 0 0 0 0-23.64zm52.22 37.63c14.23 0 25.82-11.59 25.82-25.82 0-14.24-11.59-25.82-25.82-25.82h-5.04v-6.16c0-11.31 9.21-20.52 20.53-20.52s20.53 9.21 20.53 20.52V223.9c0 3.87 3.13 7 7 7 3.86 0 7-3.13 7-7V86.37c0-.19 0-.39-.01-.59.01-.09.01-.18.01-.27V44.36c0-11.32 9.21-20.52 20.52-20.52 11.32 0 20.53 9.2 20.53 20.52V75.7c0 .09 0 .18.01.27-.01.2-.01.4-.01.61V223.9c0 3.87 3.13 7 7 7s7-3.13 7-7V76.58c0-11.32 9.21-20.53 20.53-20.53s20.52 9.21 20.52 20.53v66.39c0 .12.01.24.01.35 0 .26-.01.52-.01.79v79.79c0 3.87 3.14 7 7 7 3.88 0 7-3.13 7-7v-79.79c0-11.32 9.21-20.53 20.53-20.53S489 132.79 489 144.11v193.58c0 28.8-14.54 55.45-38.89 71.29a7.023 7.023 0 0 0-3.18 5.87v53.87c0 10.72-8.73 19.45-19.46 19.45H302.75c-10.73 0-19.46-8.73-19.46-19.45v-53.87c0-2.37-1.19-4.58-3.18-5.87-24.34-15.84-38.88-42.55-38.88-71.44V214.49c0-14.2 11.55-25.75 25.75-25.75 14.19 0 25.74 11.55 25.74 25.75v71.8c0 3.87 3.14 7 7 7 29.44 0 53.39 23.95 53.39 53.39v19.74c0 3.87 3.14 7 7 7 3.87 0 7-3.13 7-7v-19.74c0-34.79-26.51-63.51-60.39-67.02v-65.17c0-16.31-9.86-30.35-23.94-36.47v-33.84h5.04z" clip-rule="evenodd" fill="#556ee6" opacity="1" data-original="#000000" class=""></path></g></svg>