<svg xmlns="http://www.w3.org/2000/svg" version="1.1" xmlns:xlink="http://www.w3.org/1999/xlink" width="40" height="60" x="0" y="0" viewBox="0 0 64 64" style="enable-background:new 0 0 512 512" xml:space="preserve" class=""><g><path d="M59 20.277V12a1 1 0 0 0-2 0v8.277a2 2 0 1 0 2 0Z" fill="#556ee6" opacity="1" data-original="#000000" class=""></path><path d="M62 17.551V4a4 4 0 0 0-8 0v13.551A5.931 5.931 0 0 0 52 22a6 6 0 0 0 12 0 5.931 5.931 0 0 0-2-4.449ZM58 26a4 4 0 0 1-4-4 3.964 3.964 0 0 1 1.6-3.18 1 1 0 0 0 .4-.8V4a2 2 0 0 1 4 0v14.022a1 1 0 0 0 .4.8A3.964 3.964 0 0 1 62 22a4 4 0 0 1-4 4ZM38.5 30.583h-1.083a1 1 0 0 0 0 2H38.5a1 1 0 0 0 0-2ZM27.583 31.583a1 1 0 0 0-1-1H25.5a1 1 0 0 0 0 2h1.083a1 1 0 0 0 1-1Z" fill="#556ee6" opacity="1" data-original="#000000" class=""></path><path d="M55.874 58.548C54.327 57.8 43 55.515 39.454 54.812a7.746 7.746 0 0 0 .046-.825v-5.156a18.523 18.523 0 0 0 4.972-7.591A8.329 8.329 0 0 0 47 40.753c2.857-1.037 4.807-5.05 4.346-8.945a3.648 3.648 0 0 0-1.413-2.664 5.276 5.276 0 0 0-3.678-.667 15.109 15.109 0 0 0 3.91-9.723 14.821 14.821 0 0 0-.222-2.554c0-.025-.02-.043-.026-.067a3.2 3.2 0 0 0 .034-1.164 3.27 3.27 0 0 0-3.25-2.643h-.433a3.2 3.2 0 0 0 .2-1.709 3.271 3.271 0 0 0-3.254-2.642H43.2l-13.3.049a19.848 19.848 0 0 0 4.062-2.012C36.246 4.342 35.391.9 35.354.751A1 1 0 0 0 34.188.02L21.662 2.537a1 1 0 0 0-.58.351l-5.689 7.024L1 9.945a1 1 0 0 0 0 2l14.87-.034a1 1 0 0 0 .775-.37l5.762-7.115 11.127-2.235a2.567 2.567 0 0 1-.752 2.209 26.123 26.123 0 0 1-5.548 2.46 1 1 0 0 0-.683 1.076c.007.055.64 5.559-4.07 8.175a1 1 0 0 0 .487 1.874.985.985 0 0 0 .484-.126 9.9 9.9 0 0 0 5.054-7.83l14.7-.054h.006a1.275 1.275 0 0 1 1.281.971 1.174 1.174 0 0 1-1.04 1.38H33a1 1 0 0 0 0 2h13.7a1.275 1.275 0 0 1 1.281.971 1.183 1.183 0 0 1-1.156 1.394H33a1 1 0 0 0 0 2h10.2c.009 0 .016.005.024.005h.01a1.286 1.286 0 0 1 1.291.982 1.184 1.184 0 0 1-1.156 1.394H32.964a1 1 0 0 0 0 2h6.653c.026 0 .049.015.075.015h.008a1.273 1.273 0 0 1 1.28.972 1.183 1.183 0 0 1-1.16 1.393l-16.887.062H22.9a9.615 9.615 0 0 1-6.437-2.637 1 1 0 0 0-.73-.316L1 22.582a1 1 0 0 0 0 2l13.917-.02a14.465 14.465 0 0 0 2.6 3.895 5.079 5.079 0 0 0-3.455.687 3.648 3.648 0 0 0-1.413 2.664c-.461 3.9 1.489 7.908 4.345 8.945a8.353 8.353 0 0 0 2.622.49A20.261 20.261 0 0 0 24.5 48.35v5.637a7.746 7.746 0 0 0 .046.825C21 55.515 9.673 57.8 8.126 58.548 6.052 59.555 5 61.053 5 63a1 1 0 0 0 2 0c0-1.164.616-1.982 2-2.653 1.064-.517 10.165-2.43 16.019-3.59a7.441 7.441 0 0 0 13.964 0c5.854 1.16 14.955 3.073 16.019 3.59 1.383.671 2 1.489 2 2.653a1 1 0 0 0 2 0c-.002-1.947-1.054-3.445-3.128-4.452Zm-7.109-27.784a1.623 1.623 0 0 1 .6 1.279c.347 2.925-1.075 6.117-3.042 6.831a6.349 6.349 0 0 1-1.428.331c.006-.1.024-.208.024-.3v-8.211c1.381-.263 3.066-.494 3.846.07ZM45.8 21.94a3.2 3.2 0 0 0 .7-2.591 2.946 2.946 0 0 0-.2-.658h.524a3.177 3.177 0 0 0 1.323-.295c0 .12.016.239.016.358a13.3 13.3 0 0 1-3.528 8.521 17.026 17.026 0 0 0-1.165-4.214 3.178 3.178 0 0 0 2.33-1.121ZM17.678 38.874c-1.966-.714-3.388-3.906-3.041-6.832a1.622 1.622 0 0 1 .6-1.278c.782-.565 2.467-.333 3.848-.07v8.211c0 .091.021.2.028.3a6.4 6.4 0 0 1-1.435-.331Zm2.377-10.754a13.811 13.811 0 0 1-1.51-1.527 11.226 11.226 0 0 0 2.34.712c-.285.308-.585.595-.83.815ZM37.5 53.987a5.5 5.5 0 1 1-11 0V49.96a10.34 10.34 0 0 0 5.782 1.983 9.831 9.831 0 0 0 5.218-1.6Zm-5.218-4.044c-6.033 0-11.2-8.414-11.2-11.038v-9.023a14.544 14.544 0 0 0 1.96-2.023c.091-.119.162-.231.245-.347l16.543-.06a3.18 3.18 0 0 0 2.422-1.132c.048-.057.08-.124.124-.184a28.535 28.535 0 0 1 .54 3.335v9.434c.001 3.111-4.716 11.038-10.634 11.038Z" fill="#556ee6" opacity="1" data-original="#000000" class=""></path><path d="M36.33 40.49A8.864 8.864 0 0 0 32 39.25a8.864 8.864 0 0 0-4.33 1.24 1 1 0 0 0 1.073 1.688A6.892 6.892 0 0 1 32 41.25a6.876 6.876 0 0 1 3.254.927 1 1 0 0 0 1.076-1.687Z" fill="#556ee6" opacity="1" data-original="#000000" class=""></path></g></svg>