<svg xmlns="http://www.w3.org/2000/svg" version="1.1" xmlns:xlink="http://www.w3.org/1999/xlink" width="40" height="60" x="0" y="0" viewBox="0 0 16.933 16.933" style="enable-background:new 0 0 512 512" xml:space="preserve" class=""><g><path d="M8.457.528a.267.267 0 0 0-.11.03s-3.142 1.567-7.06 2.09a.265.265 0 0 0-.229.263v5.554c0 3.403 1.863 5.421 3.7 6.544 1.837 1.122 3.67 1.392 3.67 1.392a.259.259 0 0 0 .078 0s1.833-.27 3.67-1.392c1.836-1.123 3.699-3.141 3.699-6.544V2.911a.265.265 0 0 0-.228-.264C11.728 2.125 8.586.557 8.586.557a.265.265 0 0 0-.13-.03zm.01 3.176c2.627 0 4.761 2.134 4.761 4.761s-2.134 4.764-4.761 4.764c-2.627 0-4.762-2.137-4.762-4.764S5.84 3.704 8.467 3.704zm-1.06 2.38V7.41H6.087a.265.265 0 0 0-.266.264V9.26c0 .146.12.264.266.263h1.322v1.325c0 .146.12.264.266.263h1.585a.265.265 0 0 0 .266-.263V9.524h1.322a.265.265 0 0 0 .266-.263V7.673a.265.265 0 0 0-.266-.264H9.525V6.085a.265.265 0 0 0-.266-.264H7.66a.266.266 0 0 0-.252.264z" fill="#556ee6" opacity="1" data-original="#000000" class=""></path></g></svg>