<svg xmlns="http://www.w3.org/2000/svg" version="1.1" xmlns:xlink="http://www.w3.org/1999/xlink" width="40" height="60" x="0" y="0" viewBox="0 0 512 512" style="enable-background:new 0 0 512 512" xml:space="preserve" class=""><g><path d="M284.005 209.076c-7.965 9.636-17.654 14.729-28.019 14.729-10.346 0-20.026-5.093-27.991-14.729a6.987 6.987 0 0 1 .934-9.838 6.986 6.986 0 0 1 9.838.934c3.642 4.406 9.585 9.658 17.219 9.658 7.657 0 13.605-5.252 17.247-9.658a6.987 6.987 0 1 1 10.772 8.904zm-106.329-58.885c-11.98 0-21.727 9.747-21.727 21.727a6.988 6.988 0 0 0 13.976 0c0-4.274 3.478-7.752 7.752-7.752s7.752 3.478 7.752 7.752a6.988 6.988 0 0 0 13.976 0c-.001-11.98-9.748-21.727-21.729-21.727zm156.648 0c-11.98 0-21.727 9.747-21.727 21.727a6.988 6.988 0 0 0 13.976 0c0-4.274 3.478-7.752 7.752-7.752s7.752 3.478 7.752 7.752a6.988 6.988 0 0 0 13.976 0c-.002-11.98-9.749-21.727-21.729-21.727zm59.158 189.665 65.861 27.037v60.542c-9.022 33.315-30.58 56.11-65.861 69.614-35.301-13.504-56.869-36.299-65.891-69.614v-60.542zm6.417 65.122v-20.909h-12.865v20.909c0 3.862-3.134 6.986-6.996 6.986h-20.899v12.875h20.899c3.863 0 6.996 3.134 6.996 6.986v20.879h12.865v-20.879a6.994 6.994 0 0 1 6.986-6.986h20.909v-12.875h-20.909a6.986 6.986 0 0 1-6.986-6.986zm-70.392 60.662a100.668 100.668 0 0 0 8.623 11.178 113.55 113.55 0 0 1-10.899 9.821l-11.877-8.513c-.01.01-.03.02-.04.03l-87.209-62.587c-4.99-3.573-7.625-8.713-7.625-14.861s2.635-11.288 7.635-14.861l50.042-35.92a178.54 178.54 0 0 1-22.167 1.387c-1.228 0-2.455-.01-3.673-.04l-32.337 23.215c-8.693 6.208-13.474 15.52-13.474 26.219s4.781 20.011 13.464 26.219l82.488 59.204c.02-.01.03-.02.05-.02l12.526 8.982a114.363 114.363 0 0 1-59.043 16.407c-63.466 0-115.095-51.629-115.095-115.095v-88.247c-23.624-20.59-41.688-47.397-51.639-77.838a.019.019 0 0 1-.002-.008c-28.066-1.525-50.431-24.834-50.431-53.273 0-28.184 21.969-51.319 49.681-53.216a.088.088 0 0 1 .005-.015c20.184-64.784 76.983-113.562 146.067-122 .072-.009.143-.02.215-.027A175.748 175.748 0 0 1 255.991.5c78.576 0 145.256 51.948 167.502 123.309l.005.015c27.711 1.898 49.679 25.032 49.679 53.216 0 28.438-22.365 51.747-50.43 53.273l-.002.008c-9.95 30.44-28.025 57.238-51.639 77.828v25.78l-13.983 5.739-39.173 16.079a6.963 6.963 0 0 0-4.332 6.457v66.151c0 .599.07 1.198.23 1.776 3.493 13.282 8.683 25.099 15.659 35.509zm101.88-289.733c0 13.709-1.586 27.069-4.578 39.88 18.39-3.309 32.392-19.419 32.392-38.747 0-19.141-13.729-35.129-31.856-38.652v.002a175.351 175.351 0 0 1 4.042 37.517zm-346.194 39.88a175.185 175.185 0 0 1-4.579-39.881c0-12.875 1.397-25.43 4.042-37.517v-.002c-18.127 3.523-31.857 19.511-31.857 38.652 0 19.33 14.002 35.44 32.394 38.748zM256.3 400.028c0-6.677-5.419-12.106-12.086-12.106-6.677 0-12.106 5.429-12.106 12.106s5.429 12.106 12.106 12.106c6.667 0 12.086-5.429 12.086-12.106zm161.115-224.121c0-82.968-62.917-151.513-143.529-160.436l-.031-.003c17.177 13.14 29.009 34.208 29.009 56.499 0 35.875-30.866 58.326-60.706 59.306a63.18 63.18 0 0 1-2.079.035c-25.62 0-43.718-15.811-45.3-39.87-.673-10.282 2.962-20.219 10.235-27.983 7.833-8.362 18.925-13.158 30.433-13.158a40.604 40.604 0 0 1 31.118 14.481 6.987 6.987 0 1 1-10.689 9.003 26.66 26.66 0 0 0-20.429-9.51c-7.657 0-15.032 3.185-20.233 8.737-4.602 4.913-6.906 11.133-6.489 17.514 1.348 20.499 17.906 27.286 32.974 26.782 23.196-.762 47.189-17.928 47.189-45.338 0-28.763-25.709-55.955-53.024-56.23-79.542 9.931-141.277 77.967-141.277 160.17 0 89.016 72.398 161.434 161.404 161.434 89.006.001 161.424-72.417 161.424-161.433z" fill="#556ee6" opacity="1" data-original="#000000" class=""></path></g></svg>