<svg xmlns="http://www.w3.org/2000/svg" version="1.1" xmlns:xlink="http://www.w3.org/1999/xlink" width="40" height="60" x="0" y="0" viewBox="0 0 496 496" style="enable-background:new 0 0 512 512" xml:space="preserve" class=""><g><path d="M320 216h48v-24h24v-48h-24v-24h-48v24h-24v48h24zm-8-40v-16h24v-24h16v24h24v16h-24v24h-16v-24zm0 0" fill="#556ee6" opacity="1" data-original="#000000" class=""></path><path d="m445.23 305.168-10.671-11.922C409.527 315.664 377.367 328 344 328c-74.992 0-136-61.008-136-136 0-33.414 12.344-65.566 34.762-90.535l-11.907-10.688C205.801 118.68 192 154.633 192 192c0 69.953 47.559 128.855 112 146.48V360h-16v16h16v16h-16v16h16v88h80v-88h16v-16h-16v-16h16v-16h-16v-21.441a152.082 152.082 0 0 0 61.23-33.391zM368 480h-48v-72h48zm0-88h-48v-16h48zm0-32h-48v-18.09c7.84 1.258 15.816 2.09 24 2.09 8.098 0 16.105-.77 24-2.04zm0 0" fill="#556ee6" opacity="1" data-original="#000000" class=""></path><path d="M372.207 42.91 344 1.88 315.816 42.87c-27 5.09-52.183 17.434-72.992 36L253.48 90.81c14.262-12.73 30.817-22.2 48.625-28l-16.953 24.656C247.398 108.754 224 148.594 224 192c0 66.168 53.832 120 120 120s120-53.832 120-120c0-43.406-23.398-83.246-61.16-104.535l-16.918-24.61C441.442 80.665 480 132.063 480 192c0 33.367-12.336 65.527-34.754 90.559l11.922 10.671C482.207 265.266 496 229.312 496 192c0-73.52-51.871-135.594-123.793-149.09zm38.16 83.754C419.29 139.633 424 154.81 424 170.543 424 213.258 389.258 248 346.543 248h-5.086C298.742 248 264 213.258 264 170.543c0-15.734 4.71-30.91 13.633-43.879L344 30.121zM344 296c-57.344 0-104-46.656-104-104 0-17.191 4.266-33.727 11.977-48.398A93.412 93.412 0 0 0 248 170.543C248 222.07 289.93 264 341.457 264h5.086C398.07 264 440 222.07 440 170.543a93.32 93.32 0 0 0-3.977-26.934C443.734 158.273 448 174.81 448 192c0 57.344-46.656 104-104 104zM160 0H16C7.176 0 0 7.176 0 16v16c0 8.824 7.176 16 16 16v376c0 39.695 32.305 72 72 72s72-32.305 72-72V48c8.824 0 16-7.176 16-16V16c0-8.824-7.176-16-16-16zm-16 424c0 30.879-25.121 56-56 56s-56-25.121-56-56v-8h56v-16H32v-16h40v-16H32v-16h56v-16H32v-16h40v-16H32v-16h56v-16H32v-16h40v-16H32v-16h56v-16H32v-16h40v-16H32v-16h56v-16H32v-16h40v-16H32V96h56V80H32V48h112zM16 32V16h144l.008 16zm0 0" fill="#556ee6" opacity="1" data-original="#000000" class=""></path><path d="M88 464c22.055 0 40-17.945 40-40v-40h-16v40c0 13.23-10.77 24-24 24zM112 352h16v16h-16zm0 0" fill="#556ee6" opacity="1" data-original="#000000" class=""></path></g></svg>