  <svg
                      xmlns="http://www.w3.org/2000/svg"
                      version="1.1"
                      xmlns:xlink="http://www.w3.org/1999/xlink"
                      width="40"
                      height="60"
                      x="0"
                      y="0"
                      viewBox="0 0 356 356"
                      style="enable-background: new 0 0 512 512"
                      xml:space="preserve"
                      fill-rule="evenodd"
                      class=""
                    >
                      <g>
                        <path
                          d="M226.258 42.151c12.569 7.377 18.322 19.933 20.807 32.809 3.958 20.507-.287 41.981-.831 47.621-.319 3.317.693 8.389 2.885 14.254 4.627 12.382 14.362 28.813 24.104 38.95 2.207 2.297 3.211 4.11 2.937 5.79-.263 1.605-1.577 2.794-2.982 3.837-3.998 2.968-9.505 4.355-9.505 4.355a4.167 4.167 0 0 0-2.762 5.759s2.585 5.666 3.056 11.307c.223 2.68.227 5.487-1.869 6.946-2.869 1.996-7.394 2.579-11.739 2.774-7.336.328-14.326-.776-14.326-.776a4.168 4.168 0 0 0-1.302 8.231s7.808 1.237 16.001.87c6.008-.269 12.159-1.499 16.125-4.259 4.505-3.134 5.895-8.719 5.414-14.48-.297-3.554-1.263-7.119-2.143-9.77 2.425-.949 5.456-2.365 8.017-4.266 3.21-2.383 5.639-5.516 6.239-9.184.588-3.597-.427-7.99-5.153-12.908-9.024-9.391-18.02-24.624-22.306-36.093-1.629-4.358-2.633-8.073-2.396-10.537.571-5.922 4.874-28.47.719-50-2.924-15.15-9.984-29.737-24.772-38.417a4.168 4.168 0 0 0-5.702 1.484 4.17 4.17 0 0 0 1.484 5.703z"
                          fill="#556ee6"
                          opacity="1"
                          data-original="#000000"
                          class=""
                        ></path>
                        <path
                          d="M257.724 223.935c1.85 1.596 2.837 3.114 3.076 4.667.391 2.544-.983 4.908-2.332 7.071-1.262 2.025-2.65 3.881-3.615 5.496-.991 1.66-1.588 3.198-1.743 4.499-.446 3.728.832 8.052 1.678 12.603.893 4.801.924 10.006-5.751 14.792-1.763 1.264-4.138 1.906-6.926 2.265-5.085.655-11.383.259-18.332-.453-18.732-1.919-41.852-6.055-59.863-1.483a4.17 4.17 0 0 0-3.014 5.064 4.169 4.169 0 0 0 5.064 3.013c17.141-4.351 39.137-.13 56.964 1.696 7.674.787 14.631 1.151 20.246.428 4.345-.559 7.969-1.787 10.717-3.758 10.436-7.483 10.484-15.581 9.088-23.088-.68-3.656-1.955-7.095-1.597-10.09.099-.827.932-1.744 1.72-2.911 1.339-1.982 2.916-4.22 4.093-6.614 1.45-2.949 2.292-6.12 1.898-9.371-.398-3.285-2.006-6.752-5.927-10.136-1.742-1.502-4.375-1.308-5.877.433s-1.308 4.374.433 5.877z"
                          fill="#556ee6"
                          opacity="1"
                          data-original="#000000"
                          class=""
                        ></path>
                        <path
                          d="M231.427 16.402c-.497 7.806-3.948 16.573-9.948 26.378-9.493 15.517-25.289 33.39-46.558 53.689-37.292 35.59-55.9 88.122-32.223 136.663 15.359 31.488 17.166 54.328 13.577 70.445-5.119 22.986-21.208 31.622-21.208 31.622a4.169 4.169 0 0 0-1.755 5.625 4.169 4.169 0 0 0 5.625 1.755s19.412-9.977 25.472-37.191c3.864-17.349 2.313-42.012-14.221-75.909-22.022-45.146-4.197-93.881 30.486-126.981 21.915-20.916 38.132-39.381 47.914-55.368 6.85-11.198 10.588-21.285 11.156-30.199a4.17 4.17 0 0 0-3.894-4.423 4.17 4.17 0 0 0-4.423 3.894z"
                          fill="#556ee6"
                          opacity="1"
                          data-original="#000000"
                          class=""
                        ></path>
                        <path
                          d="M189.387 123.705c9.902-14.321 30.711-17.238 42.139-15.385 2.27.368 4.412-1.176 4.78-3.446s-1.176-4.412-3.446-4.78c-13.692-2.22-38.463 1.713-50.327 18.871a4.168 4.168 0 0 0 6.854 4.74zM232.867 132.007c-10.507 9.044-22.748 10.259-36.197 4.248a4.168 4.168 0 0 0-5.504 2.103 4.17 4.17 0 0 0 2.104 5.505c16.742 7.484 31.953 5.72 45.034-5.54a4.168 4.168 0 0 0-5.437-6.316zM177.319 57.067c-4.341 9.224-15.29 16.726-27.734 25.979-20.239 15.049-44.423 34.02-55.364 68.064-5.893 18.337-5.024 34.823-4.135 51.286 1.249 23.136 2.505 46.239-18.273 74.985a4.169 4.169 0 0 0 .937 5.818 4.169 4.169 0 0 0 5.817-.936c18.636-25.783 20.92-47.318 20.378-68.194-.511-19.641-3.779-38.661 3.21-60.41 10.307-32.073 33.335-49.748 52.403-63.926 13.761-10.232 25.501-18.917 30.302-29.118a4.17 4.17 0 0 0-1.996-5.544 4.169 4.169 0 0 0-5.545 1.996zM116.523 257.104c1.776 14.602-3.185 28.108-9.673 39.086-9.971 16.872-23.651 27.873-23.651 27.873a4.168 4.168 0 0 0-.641 5.858 4.169 4.169 0 0 0 5.857.641s14.823-11.881 25.609-30.132c7.351-12.438 12.784-27.788 10.772-44.332a4.168 4.168 0 0 0-8.273 1.006z"
                          fill="#556ee6"
                          opacity="1"
                          data-original="#000000"
                          class=""
                        ></path>
                      </g>
                    </svg>